<svg width="100" height="100" viewBox="0 0 100 100" xmlns="http://www.w3.org/2000/svg">
  <rect width="100" height="100" fill="#fff"/>
  <path fill-rule="evenodd" clip-rule="evenodd" d="M0 0h30v30H0V0Zm7 7v16h16V7H7Zm33 0h30v30H40V0Zm7 7v16h16V7H47ZM0 40h30v30H0V40Zm7 7v16h16V47H7Zm93-7v30H70V40h30Zm-7 7v16H77V47h16ZM40 40h7v7h-7v-7Zm9 0h7v7h-7v-7Zm9 0h7v7h-7v-7ZM40 49h7v7h-7v-7Zm9 9h7v7h-7v-7Zm-9 9h7v7h-7v-7Zm-9-9h7v7h-7v-7Zm0 9h7v7h-7v-7Zm9-18h7v7h-7v-7Zm-9-9h7v7h-7v-7Zm18 9h7v7h-7v-7Zm-9 18h7v7h-7v-7Zm-9 0h7v7h-7v-7Zm9-9h7v7h-7v-7Zm9-9h7v7h-7v-7Zm0-9h7v7h-7v-7Zm0 18h7v7h-7v-7Zm9-9h7v7h-7v-7Zm0 9h7v7h-7v-7Zm-9-36h7v7h-7v-7Zm0 9h7v7h-7v-7Zm-9-9h7v7h-7v-7Zm-9 0h7v7h-7v-7Zm45 45h7v7h-7v-7Zm-9 0h7v7h-7v-7Zm9 9h7v7h-7v-7Zm-9 9h7v7h-7v-7Zm-9-9h7v7h-7v-7Zm-9 0h7v7h-7v-7Zm18-9h7v7h-7v-7Zm-9 0h7v7h-7v-7Z" fill="#000"/>
</svg>
